<?xml version="1.0" encoding="utf-8" standalone="no"?>
<!DOCTYPE svg PUBLIC "-//W3C//DTD SVG 1.1//EN"
  "http://www.w3.org/Graphics/SVG/1.1/DTD/svg11.dtd">
<!-- Created with matplotlib (https://matplotlib.org/) -->
<svg height="345.6pt" version="1.1" viewBox="0 0 460.8 345.6" width="460.8pt" xmlns="http://www.w3.org/2000/svg" xmlns:xlink="http://www.w3.org/1999/xlink">
 <defs>
  <style type="text/css">
*{stroke-linecap:butt;stroke-linejoin:round;}
  </style>
 </defs>
 <g id="figure_1">
  <g id="patch_1">
   <path d="M 0 345.6 
L 460.8 345.6 
L 460.8 0 
L 0 0 
z
" style="fill:#ffffff;"/>
  </g>
  <g id="axes_1">
   <g id="patch_2">
    <path d="M 83.541101 319.190625 
L 447.48 319.190625 
L 447.48 13.32 
L 83.541101 13.32 
z
" style="fill:#ffffff;"/>
   </g>
   <g id="PolyCollection_1">
    <path clip-path="url(#pc5a6d0ea6f)" d="M 250.380815 71150.396826 
L 250.380815 86.871621 
L 251.068531 82.077827 
L 251.756246 79.562907 
L 252.443961 75.617725 
L 253.131676 73.092037 
L 253.819392 70.220499 
L 254.507107 67.959261 
L 255.194822 64.71267 
L 255.882537 62.063682 
L 256.570252 59.692871 
L 257.257968 56.808901 
L 257.945683 53.866388 
L 258.633398 51.244219 
L 259.321113 48.212004 
L 260.008829 46.22566 
L 260.696544 44.289859 
L 261.384259 42.272878 
L 262.071974 40.467499 
L 262.759689 39.238334 
L 263.447405 37.800657 
L 264.13512 36.443992 
L 264.822835 35.777378 
L 265.51055 35.050247 
L 266.198266 35.17716 
L 266.885981 34.727949 
L 267.573696 35.069761 
L 268.261411 35.393396 
L 268.949127 35.822597 
L 269.636842 36.602652 
L 270.324557 37.734305 
L 271.012272 39.280851 
L 271.699987 40.455304 
L 272.387703 42.263584 
L 273.075418 44.348144 
L 273.763133 47.265261 
L 274.450848 49.928422 
L 275.138564 52.424869 
L 275.826279 55.457659 
L 276.513994 58.966355 
L 277.201709 61.28591 
L 277.889425 64.888654 
L 278.57714 68.065259 
L 279.264855 71.070036 
L 279.95257 74.479102 
L 280.640285 76.591487 
L 280.640285 71150.396826 
L 280.640285 71150.396826 
L 279.95257 71150.396826 
L 279.264855 71150.396826 
L 278.57714 71150.396826 
L 277.889425 71150.396826 
L 277.201709 71150.396826 
L 276.513994 71150.396826 
L 275.826279 71150.396826 
L 275.138564 71150.396826 
L 274.450848 71150.396826 
L 273.763133 71150.396826 
L 273.075418 71150.396826 
L 272.387703 71150.396826 
L 271.699987 71150.396826 
L 271.012272 71150.396826 
L 270.324557 71150.396826 
L 269.636842 71150.396826 
L 268.949127 71150.396826 
L 268.261411 71150.396826 
L 267.573696 71150.396826 
L 266.885981 71150.396826 
L 266.198266 71150.396826 
L 265.51055 71150.396826 
L 264.822835 71150.396826 
L 264.13512 71150.396826 
L 263.447405 71150.396826 
L 262.759689 71150.396826 
L 262.071974 71150.396826 
L 261.384259 71150.396826 
L 260.696544 71150.396826 
L 260.008829 71150.396826 
L 259.321113 71150.396826 
L 258.633398 71150.396826 
L 257.945683 71150.396826 
L 257.257968 71150.396826 
L 256.570252 71150.396826 
L 255.882537 71150.396826 
L 255.194822 71150.396826 
L 254.507107 71150.396826 
L 253.819392 71150.396826 
L 253.131676 71150.396826 
L 252.443961 71150.396826 
L 251.756246 71150.396826 
L 251.068531 71150.396826 
L 250.380815 71150.396826 
z
" style="fill:#999999;stroke:#999999;"/>
   </g>
   <g id="matplotlib.axis_1">
    <g id="xtick_1">
     <g id="line2d_1">
      <path clip-path="url(#pc5a6d0ea6f)" d="M 109.536736 319.190625 
L 109.536736 13.32 
" style="fill:none;stroke:#b0b0b0;stroke-linecap:square;stroke-width:0.8;"/>
     </g>
     <g id="line2d_2">
      <defs>
       <path d="M 0 0 
L 0 3.5 
" id="mef3cef0924" style="stroke:#000000;stroke-width:0.8;"/>
      </defs>
      <g>
       <use style="stroke:#000000;stroke-width:0.8;" x="109.536736" xlink:href="#mef3cef0924" y="319.190625"/>
      </g>
     </g>
    </g>
    <g id="xtick_2">
     <g id="line2d_3">
      <path clip-path="url(#pc5a6d0ea6f)" d="M 161.528008 319.190625 
L 161.528008 13.32 
" style="fill:none;stroke:#b0b0b0;stroke-linecap:square;stroke-width:0.8;"/>
     </g>
     <g id="line2d_4">
      <g>
       <use style="stroke:#000000;stroke-width:0.8;" x="161.528008" xlink:href="#mef3cef0924" y="319.190625"/>
      </g>
     </g>
    </g>
    <g id="xtick_3">
     <g id="line2d_5">
      <path clip-path="url(#pc5a6d0ea6f)" d="M 213.519279 319.190625 
L 213.519279 13.32 
" style="fill:none;stroke:#b0b0b0;stroke-linecap:square;stroke-width:0.8;"/>
     </g>
     <g id="line2d_6">
      <g>
       <use style="stroke:#000000;stroke-width:0.8;" x="213.519279" xlink:href="#mef3cef0924" y="319.190625"/>
      </g>
     </g>
    </g>
    <g id="xtick_4">
     <g id="line2d_7">
      <path clip-path="url(#pc5a6d0ea6f)" d="M 265.51055 319.190625 
L 265.51055 13.32 
" style="fill:none;stroke:#b0b0b0;stroke-linecap:square;stroke-width:0.8;"/>
     </g>
     <g id="line2d_8">
      <g>
       <use style="stroke:#000000;stroke-width:0.8;" x="265.51055" xlink:href="#mef3cef0924" y="319.190625"/>
      </g>
     </g>
    </g>
    <g id="xtick_5">
     <g id="line2d_9">
      <path clip-path="url(#pc5a6d0ea6f)" d="M 317.501822 319.190625 
L 317.501822 13.32 
" style="fill:none;stroke:#b0b0b0;stroke-linecap:square;stroke-width:0.8;"/>
     </g>
     <g id="line2d_10">
      <g>
       <use style="stroke:#000000;stroke-width:0.8;" x="317.501822" xlink:href="#mef3cef0924" y="319.190625"/>
      </g>
     </g>
    </g>
    <g id="xtick_6">
     <g id="line2d_11">
      <path clip-path="url(#pc5a6d0ea6f)" d="M 369.493093 319.190625 
L 369.493093 13.32 
" style="fill:none;stroke:#b0b0b0;stroke-linecap:square;stroke-width:0.8;"/>
     </g>
     <g id="line2d_12">
      <g>
       <use style="stroke:#000000;stroke-width:0.8;" x="369.493093" xlink:href="#mef3cef0924" y="319.190625"/>
      </g>
     </g>
    </g>
    <g id="xtick_7">
     <g id="line2d_13">
      <path clip-path="url(#pc5a6d0ea6f)" d="M 421.484364 319.190625 
L 421.484364 13.32 
" style="fill:none;stroke:#b0b0b0;stroke-linecap:square;stroke-width:0.8;"/>
     </g>
     <g id="line2d_14">
      <g>
       <use style="stroke:#000000;stroke-width:0.8;" x="421.484364" xlink:href="#mef3cef0924" y="319.190625"/>
      </g>
     </g>
    </g>
   </g>
   <g id="matplotlib.axis_2">
    <g id="ytick_1">
     <g id="line2d_15">
      <path clip-path="url(#pc5a6d0ea6f)" d="M 83.541101 319.190625 
L 447.48 319.190625 
" style="fill:none;stroke:#b0b0b0;stroke-linecap:square;stroke-width:0.8;"/>
     </g>
     <g id="line2d_16">
      <defs>
       <path d="M 0 0 
L -3.5 0 
" id="m303d5b62c5" style="stroke:#000000;stroke-width:0.8;"/>
      </defs>
      <g>
       <use style="stroke:#000000;stroke-width:0.8;" x="83.541101" xlink:href="#m303d5b62c5" y="319.190625"/>
      </g>
     </g>
     <g id="text_1">
      <!-- $\mathdefault{10^{-4}}$ -->
      <g transform="translate(36.941101 329.403125)">
       <text>
        <tspan style="font-family:Arial;font-size:20px;font-style:regular;font-weight:regular;" x="0 11.123047" y="-0.04250000000000398">10</tspan>
        <tspan style="font-family:Arial;font-size:14px;font-style:regular;font-weight:regular;" x="22.594562 30.770344" y="-13.981250000000001">−4</tspan>
       </text>
      </g>
     </g>
    </g>
    <g id="ytick_2">
     <g id="line2d_17">
      <path clip-path="url(#pc5a6d0ea6f)" d="M 83.541101 248.074956 
L 447.48 248.074956 
" style="fill:none;stroke:#b0b0b0;stroke-linecap:square;stroke-width:0.8;"/>
     </g>
     <g id="line2d_18">
      <g>
       <use style="stroke:#000000;stroke-width:0.8;" x="83.541101" xlink:href="#m303d5b62c5" y="248.074956"/>
      </g>
     </g>
     <g id="text_2">
      <!-- $\mathdefault{10^{-3}}$ -->
      <g transform="translate(36.941101 258.387456)">
       <text>
        <tspan style="font-family:Arial;font-size:20px;font-style:regular;font-weight:regular;" x="0 11.123047" y="-0.9987500000000011">10</tspan>
        <tspan style="font-family:Arial;font-size:14px;font-style:regular;font-weight:regular;" x="22.594562 30.770344" y="-14.937499999999998">−3</tspan>
       </text>
      </g>
     </g>
    </g>
    <g id="ytick_3">
     <g id="line2d_19">
      <path clip-path="url(#pc5a6d0ea6f)" d="M 83.541101 176.959287 
L 447.48 176.959287 
" style="fill:none;stroke:#b0b0b0;stroke-linecap:square;stroke-width:0.8;"/>
     </g>
     <g id="line2d_20">
      <g>
       <use style="stroke:#000000;stroke-width:0.8;" x="83.541101" xlink:href="#m303d5b62c5" y="176.959287"/>
      </g>
     </g>
     <g id="text_3">
      <!-- $\mathdefault{10^{-2}}$ -->
      <g transform="translate(36.941101 187.271787)">
       <text>
        <tspan style="font-family:Arial;font-size:20px;font-style:regular;font-weight:regular;" x="0 11.123047" y="-0.9987500000000011">10</tspan>
        <tspan style="font-family:Arial;font-size:14px;font-style:regular;font-weight:regular;" x="22.594562 30.770344" y="-14.937499999999998">−2</tspan>
       </text>
      </g>
     </g>
    </g>
    <g id="ytick_4">
     <g id="line2d_21">
      <path clip-path="url(#pc5a6d0ea6f)" d="M 83.541101 105.843618 
L 447.48 105.843618 
" style="fill:none;stroke:#b0b0b0;stroke-linecap:square;stroke-width:0.8;"/>
     </g>
     <g id="line2d_22">
      <g>
       <use style="stroke:#000000;stroke-width:0.8;" x="83.541101" xlink:href="#m303d5b62c5" y="105.843618"/>
      </g>
     </g>
     <g id="text_4">
      <!-- $\mathdefault{10^{-1}}$ -->
      <g transform="translate(36.941101 116.156118)">
       <text>
        <tspan style="font-family:Arial;font-size:20px;font-style:regular;font-weight:regular;" x="0 11.123047" y="-0.9987500000000011">10</tspan>
        <tspan style="font-family:Arial;font-size:14px;font-style:regular;font-weight:regular;" x="22.594562 30.770344" y="-14.937499999999998">−1</tspan>
       </text>
      </g>
     </g>
    </g>
    <g id="ytick_5">
     <g id="line2d_23">
      <path clip-path="url(#pc5a6d0ea6f)" d="M 83.541101 34.727949 
L 447.48 34.727949 
" style="fill:none;stroke:#b0b0b0;stroke-linecap:square;stroke-width:0.8;"/>
     </g>
     <g id="line2d_24">
      <g>
       <use style="stroke:#000000;stroke-width:0.8;" x="83.541101" xlink:href="#m303d5b62c5" y="34.727949"/>
      </g>
     </g>
     <g id="text_5">
      <!-- $\mathdefault{10^{0}}$ -->
      <g transform="translate(45.141101 45.040449)">
       <text>
        <tspan style="font-family:Arial;font-size:20px;font-style:regular;font-weight:regular;" x="0 11.123047" y="-0.9987500000000011">10</tspan>
        <tspan style="font-family:Arial;font-size:14px;font-style:regular;font-weight:regular;" x="22.594562" y="-14.937499999999998">0</tspan>
       </text>
      </g>
     </g>
    </g>
    <g id="ytick_6">
     <g id="line2d_25">
      <path clip-path="url(#pc5a6d0ea6f)" d="M 83.541101 297.782676 
L 447.48 297.782676 
" style="fill:none;stroke:#b0b0b0;stroke-linecap:square;stroke-width:0.8;"/>
     </g>
     <g id="line2d_26">
      <defs>
       <path d="M 0 0 
L -2 0 
" id="mf434ff7d12" style="stroke:#000000;stroke-width:0.6;"/>
      </defs>
      <g>
       <use style="stroke:#000000;stroke-width:0.6;" x="83.541101" xlink:href="#mf434ff7d12" y="297.782676"/>
      </g>
     </g>
    </g>
    <g id="ytick_7">
     <g id="line2d_27">
      <path clip-path="url(#pc5a6d0ea6f)" d="M 83.541101 285.259828 
L 447.48 285.259828 
" style="fill:none;stroke:#b0b0b0;stroke-linecap:square;stroke-width:0.8;"/>
     </g>
     <g id="line2d_28">
      <g>
       <use style="stroke:#000000;stroke-width:0.6;" x="83.541101" xlink:href="#mf434ff7d12" y="285.259828"/>
      </g>
     </g>
    </g>
    <g id="ytick_8">
     <g id="line2d_29">
      <path clip-path="url(#pc5a6d0ea6f)" d="M 83.541101 276.374726 
L 447.48 276.374726 
" style="fill:none;stroke:#b0b0b0;stroke-linecap:square;stroke-width:0.8;"/>
     </g>
     <g id="line2d_30">
      <g>
       <use style="stroke:#000000;stroke-width:0.6;" x="83.541101" xlink:href="#mf434ff7d12" y="276.374726"/>
      </g>
     </g>
    </g>
    <g id="ytick_9">
     <g id="line2d_31">
      <path clip-path="url(#pc5a6d0ea6f)" d="M 83.541101 269.482906 
L 447.48 269.482906 
" style="fill:none;stroke:#b0b0b0;stroke-linecap:square;stroke-width:0.8;"/>
     </g>
     <g id="line2d_32">
      <g>
       <use style="stroke:#000000;stroke-width:0.6;" x="83.541101" xlink:href="#mf434ff7d12" y="269.482906"/>
      </g>
     </g>
    </g>
    <g id="ytick_10">
     <g id="line2d_33">
      <path clip-path="url(#pc5a6d0ea6f)" d="M 83.541101 263.851878 
L 447.48 263.851878 
" style="fill:none;stroke:#b0b0b0;stroke-linecap:square;stroke-width:0.8;"/>
     </g>
     <g id="line2d_34">
      <g>
       <use style="stroke:#000000;stroke-width:0.6;" x="83.541101" xlink:href="#mf434ff7d12" y="263.851878"/>
      </g>
     </g>
    </g>
    <g id="ytick_11">
     <g id="line2d_35">
      <path clip-path="url(#pc5a6d0ea6f)" d="M 83.541101 259.090913 
L 447.48 259.090913 
" style="fill:none;stroke:#b0b0b0;stroke-linecap:square;stroke-width:0.8;"/>
     </g>
     <g id="line2d_36">
      <g>
       <use style="stroke:#000000;stroke-width:0.6;" x="83.541101" xlink:href="#mf434ff7d12" y="259.090913"/>
      </g>
     </g>
    </g>
    <g id="ytick_12">
     <g id="line2d_37">
      <path clip-path="url(#pc5a6d0ea6f)" d="M 83.541101 254.966777 
L 447.48 254.966777 
" style="fill:none;stroke:#b0b0b0;stroke-linecap:square;stroke-width:0.8;"/>
     </g>
     <g id="line2d_38">
      <g>
       <use style="stroke:#000000;stroke-width:0.6;" x="83.541101" xlink:href="#mf434ff7d12" y="254.966777"/>
      </g>
     </g>
    </g>
    <g id="ytick_13">
     <g id="line2d_39">
      <path clip-path="url(#pc5a6d0ea6f)" d="M 83.541101 251.329031 
L 447.48 251.329031 
" style="fill:none;stroke:#b0b0b0;stroke-linecap:square;stroke-width:0.8;"/>
     </g>
     <g id="line2d_40">
      <g>
       <use style="stroke:#000000;stroke-width:0.6;" x="83.541101" xlink:href="#mf434ff7d12" y="251.329031"/>
      </g>
     </g>
    </g>
    <g id="ytick_14">
     <g id="line2d_41">
      <path clip-path="url(#pc5a6d0ea6f)" d="M 83.541101 226.667007 
L 447.48 226.667007 
" style="fill:none;stroke:#b0b0b0;stroke-linecap:square;stroke-width:0.8;"/>
     </g>
     <g id="line2d_42">
      <g>
       <use style="stroke:#000000;stroke-width:0.6;" x="83.541101" xlink:href="#mf434ff7d12" y="226.667007"/>
      </g>
     </g>
    </g>
    <g id="ytick_15">
     <g id="line2d_43">
      <path clip-path="url(#pc5a6d0ea6f)" d="M 83.541101 214.144159 
L 447.48 214.144159 
" style="fill:none;stroke:#b0b0b0;stroke-linecap:square;stroke-width:0.8;"/>
     </g>
     <g id="line2d_44">
      <g>
       <use style="stroke:#000000;stroke-width:0.6;" x="83.541101" xlink:href="#mf434ff7d12" y="214.144159"/>
      </g>
     </g>
    </g>
    <g id="ytick_16">
     <g id="line2d_45">
      <path clip-path="url(#pc5a6d0ea6f)" d="M 83.541101 205.259057 
L 447.48 205.259057 
" style="fill:none;stroke:#b0b0b0;stroke-linecap:square;stroke-width:0.8;"/>
     </g>
     <g id="line2d_46">
      <g>
       <use style="stroke:#000000;stroke-width:0.6;" x="83.541101" xlink:href="#mf434ff7d12" y="205.259057"/>
      </g>
     </g>
    </g>
    <g id="ytick_17">
     <g id="line2d_47">
      <path clip-path="url(#pc5a6d0ea6f)" d="M 83.541101 198.367237 
L 447.48 198.367237 
" style="fill:none;stroke:#b0b0b0;stroke-linecap:square;stroke-width:0.8;"/>
     </g>
     <g id="line2d_48">
      <g>
       <use style="stroke:#000000;stroke-width:0.6;" x="83.541101" xlink:href="#mf434ff7d12" y="198.367237"/>
      </g>
     </g>
    </g>
    <g id="ytick_18">
     <g id="line2d_49">
      <path clip-path="url(#pc5a6d0ea6f)" d="M 83.541101 192.736209 
L 447.48 192.736209 
" style="fill:none;stroke:#b0b0b0;stroke-linecap:square;stroke-width:0.8;"/>
     </g>
     <g id="line2d_50">
      <g>
       <use style="stroke:#000000;stroke-width:0.6;" x="83.541101" xlink:href="#mf434ff7d12" y="192.736209"/>
      </g>
     </g>
    </g>
    <g id="ytick_19">
     <g id="line2d_51">
      <path clip-path="url(#pc5a6d0ea6f)" d="M 83.541101 187.975244 
L 447.48 187.975244 
" style="fill:none;stroke:#b0b0b0;stroke-linecap:square;stroke-width:0.8;"/>
     </g>
     <g id="line2d_52">
      <g>
       <use style="stroke:#000000;stroke-width:0.6;" x="83.541101" xlink:href="#mf434ff7d12" y="187.975244"/>
      </g>
     </g>
    </g>
    <g id="ytick_20">
     <g id="line2d_53">
      <path clip-path="url(#pc5a6d0ea6f)" d="M 83.541101 183.851108 
L 447.48 183.851108 
" style="fill:none;stroke:#b0b0b0;stroke-linecap:square;stroke-width:0.8;"/>
     </g>
     <g id="line2d_54">
      <g>
       <use style="stroke:#000000;stroke-width:0.6;" x="83.541101" xlink:href="#mf434ff7d12" y="183.851108"/>
      </g>
     </g>
    </g>
    <g id="ytick_21">
     <g id="line2d_55">
      <path clip-path="url(#pc5a6d0ea6f)" d="M 83.541101 180.213362 
L 447.48 180.213362 
" style="fill:none;stroke:#b0b0b0;stroke-linecap:square;stroke-width:0.8;"/>
     </g>
     <g id="line2d_56">
      <g>
       <use style="stroke:#000000;stroke-width:0.6;" x="83.541101" xlink:href="#mf434ff7d12" y="180.213362"/>
      </g>
     </g>
    </g>
    <g id="ytick_22">
     <g id="line2d_57">
      <path clip-path="url(#pc5a6d0ea6f)" d="M 83.541101 155.551338 
L 447.48 155.551338 
" style="fill:none;stroke:#b0b0b0;stroke-linecap:square;stroke-width:0.8;"/>
     </g>
     <g id="line2d_58">
      <g>
       <use style="stroke:#000000;stroke-width:0.6;" x="83.541101" xlink:href="#mf434ff7d12" y="155.551338"/>
      </g>
     </g>
    </g>
    <g id="ytick_23">
     <g id="line2d_59">
      <path clip-path="url(#pc5a6d0ea6f)" d="M 83.541101 143.02849 
L 447.48 143.02849 
" style="fill:none;stroke:#b0b0b0;stroke-linecap:square;stroke-width:0.8;"/>
     </g>
     <g id="line2d_60">
      <g>
       <use style="stroke:#000000;stroke-width:0.6;" x="83.541101" xlink:href="#mf434ff7d12" y="143.02849"/>
      </g>
     </g>
    </g>
    <g id="ytick_24">
     <g id="line2d_61">
      <path clip-path="url(#pc5a6d0ea6f)" d="M 83.541101 134.143388 
L 447.48 134.143388 
" style="fill:none;stroke:#b0b0b0;stroke-linecap:square;stroke-width:0.8;"/>
     </g>
     <g id="line2d_62">
      <g>
       <use style="stroke:#000000;stroke-width:0.6;" x="83.541101" xlink:href="#mf434ff7d12" y="134.143388"/>
      </g>
     </g>
    </g>
    <g id="ytick_25">
     <g id="line2d_63">
      <path clip-path="url(#pc5a6d0ea6f)" d="M 83.541101 127.251568 
L 447.48 127.251568 
" style="fill:none;stroke:#b0b0b0;stroke-linecap:square;stroke-width:0.8;"/>
     </g>
     <g id="line2d_64">
      <g>
       <use style="stroke:#000000;stroke-width:0.6;" x="83.541101" xlink:href="#mf434ff7d12" y="127.251568"/>
      </g>
     </g>
    </g>
    <g id="ytick_26">
     <g id="line2d_65">
      <path clip-path="url(#pc5a6d0ea6f)" d="M 83.541101 121.620541 
L 447.48 121.620541 
" style="fill:none;stroke:#b0b0b0;stroke-linecap:square;stroke-width:0.8;"/>
     </g>
     <g id="line2d_66">
      <g>
       <use style="stroke:#000000;stroke-width:0.6;" x="83.541101" xlink:href="#mf434ff7d12" y="121.620541"/>
      </g>
     </g>
    </g>
    <g id="ytick_27">
     <g id="line2d_67">
      <path clip-path="url(#pc5a6d0ea6f)" d="M 83.541101 116.859575 
L 447.48 116.859575 
" style="fill:none;stroke:#b0b0b0;stroke-linecap:square;stroke-width:0.8;"/>
     </g>
     <g id="line2d_68">
      <g>
       <use style="stroke:#000000;stroke-width:0.6;" x="83.541101" xlink:href="#mf434ff7d12" y="116.859575"/>
      </g>
     </g>
    </g>
    <g id="ytick_28">
     <g id="line2d_69">
      <path clip-path="url(#pc5a6d0ea6f)" d="M 83.541101 112.735439 
L 447.48 112.735439 
" style="fill:none;stroke:#b0b0b0;stroke-linecap:square;stroke-width:0.8;"/>
     </g>
     <g id="line2d_70">
      <g>
       <use style="stroke:#000000;stroke-width:0.6;" x="83.541101" xlink:href="#mf434ff7d12" y="112.735439"/>
      </g>
     </g>
    </g>
    <g id="ytick_29">
     <g id="line2d_71">
      <path clip-path="url(#pc5a6d0ea6f)" d="M 83.541101 109.097693 
L 447.48 109.097693 
" style="fill:none;stroke:#b0b0b0;stroke-linecap:square;stroke-width:0.8;"/>
     </g>
     <g id="line2d_72">
      <g>
       <use style="stroke:#000000;stroke-width:0.6;" x="83.541101" xlink:href="#mf434ff7d12" y="109.097693"/>
      </g>
     </g>
    </g>
    <g id="ytick_30">
     <g id="line2d_73">
      <path clip-path="url(#pc5a6d0ea6f)" d="M 83.541101 84.435669 
L 447.48 84.435669 
" style="fill:none;stroke:#b0b0b0;stroke-linecap:square;stroke-width:0.8;"/>
     </g>
     <g id="line2d_74">
      <g>
       <use style="stroke:#000000;stroke-width:0.6;" x="83.541101" xlink:href="#mf434ff7d12" y="84.435669"/>
      </g>
     </g>
    </g>
    <g id="ytick_31">
     <g id="line2d_75">
      <path clip-path="url(#pc5a6d0ea6f)" d="M 83.541101 71.912821 
L 447.48 71.912821 
" style="fill:none;stroke:#b0b0b0;stroke-linecap:square;stroke-width:0.8;"/>
     </g>
     <g id="line2d_76">
      <g>
       <use style="stroke:#000000;stroke-width:0.6;" x="83.541101" xlink:href="#mf434ff7d12" y="71.912821"/>
      </g>
     </g>
    </g>
    <g id="ytick_32">
     <g id="line2d_77">
      <path clip-path="url(#pc5a6d0ea6f)" d="M 83.541101 63.027719 
L 447.48 63.027719 
" style="fill:none;stroke:#b0b0b0;stroke-linecap:square;stroke-width:0.8;"/>
     </g>
     <g id="line2d_78">
      <g>
       <use style="stroke:#000000;stroke-width:0.6;" x="83.541101" xlink:href="#mf434ff7d12" y="63.027719"/>
      </g>
     </g>
    </g>
    <g id="ytick_33">
     <g id="line2d_79">
      <path clip-path="url(#pc5a6d0ea6f)" d="M 83.541101 56.135899 
L 447.48 56.135899 
" style="fill:none;stroke:#b0b0b0;stroke-linecap:square;stroke-width:0.8;"/>
     </g>
     <g id="line2d_80">
      <g>
       <use style="stroke:#000000;stroke-width:0.6;" x="83.541101" xlink:href="#mf434ff7d12" y="56.135899"/>
      </g>
     </g>
    </g>
    <g id="ytick_34">
     <g id="line2d_81">
      <path clip-path="url(#pc5a6d0ea6f)" d="M 83.541101 50.504872 
L 447.48 50.504872 
" style="fill:none;stroke:#b0b0b0;stroke-linecap:square;stroke-width:0.8;"/>
     </g>
     <g id="line2d_82">
      <g>
       <use style="stroke:#000000;stroke-width:0.6;" x="83.541101" xlink:href="#mf434ff7d12" y="50.504872"/>
      </g>
     </g>
    </g>
    <g id="ytick_35">
     <g id="line2d_83">
      <path clip-path="url(#pc5a6d0ea6f)" d="M 83.541101 45.743906 
L 447.48 45.743906 
" style="fill:none;stroke:#b0b0b0;stroke-linecap:square;stroke-width:0.8;"/>
     </g>
     <g id="line2d_84">
      <g>
       <use style="stroke:#000000;stroke-width:0.6;" x="83.541101" xlink:href="#mf434ff7d12" y="45.743906"/>
      </g>
     </g>
    </g>
    <g id="ytick_36">
     <g id="line2d_85">
      <path clip-path="url(#pc5a6d0ea6f)" d="M 83.541101 41.61977 
L 447.48 41.61977 
" style="fill:none;stroke:#b0b0b0;stroke-linecap:square;stroke-width:0.8;"/>
     </g>
     <g id="line2d_86">
      <g>
       <use style="stroke:#000000;stroke-width:0.6;" x="83.541101" xlink:href="#mf434ff7d12" y="41.61977"/>
      </g>
     </g>
    </g>
    <g id="ytick_37">
     <g id="line2d_87">
      <path clip-path="url(#pc5a6d0ea6f)" d="M 83.541101 37.982024 
L 447.48 37.982024 
" style="fill:none;stroke:#b0b0b0;stroke-linecap:square;stroke-width:0.8;"/>
     </g>
     <g id="line2d_88">
      <g>
       <use style="stroke:#000000;stroke-width:0.6;" x="83.541101" xlink:href="#mf434ff7d12" y="37.982024"/>
      </g>
     </g>
    </g>
    <g id="ytick_38">
     <g id="line2d_89">
      <path clip-path="url(#pc5a6d0ea6f)" d="M 83.541101 13.32 
L 447.48 13.32 
" style="fill:none;stroke:#b0b0b0;stroke-linecap:square;stroke-width:0.8;"/>
     </g>
     <g id="line2d_90">
      <g>
       <use style="stroke:#000000;stroke-width:0.6;" x="83.541101" xlink:href="#mf434ff7d12" y="13.32"/>
      </g>
     </g>
    </g>
    <g id="text_6">
     <text style="font-family:Arial;font-size:24px;font-style:normal;font-weight:normal;text-anchor:middle;" transform="rotate(-90, 27.889851, 166.255312)" x="27.889851" y="166.255312">intensity / arb. u.</text>
    </g>
   </g>
   <g id="line2d_91">
    <path clip-path="url(#pc5a6d0ea6f)" d="M 83.266015 324.962308 
L 83.95373 316.494182 
L 84.641445 327.097509 
L 85.32916 323.07387 
L 86.704591 329.118548 
L 87.392306 340.627202 
L 88.080021 326.580177 
L 88.767737 325.942366 
L 89.455452 320.224221 
L 90.143167 334.75901 
L 90.830882 326.705523 
L 91.518597 326.58018 
L 92.206313 331.728722 
L 92.894028 331.135843 
L 93.581743 329.115111 
L 94.269458 342.712194 
L 94.957174 325.200639 
L 95.644889 324.473351 
L 96.332604 326.071372 
L 97.020319 332.499607 
L 97.708035 325.826248 
L 98.39575 329.258107 
L 99.083465 323.300861 
L 99.77118 328.027544 
L 100.458895 320.859696 
L 101.146611 342.277469 
L 101.834326 321.721547 
L 102.522041 321.073578 
L 103.209756 324.113109 
L 103.897472 320.644675 
L 104.585187 318.694175 
L 105.272902 314.089828 
L 105.960617 317.052045 
L 106.648333 330.394277 
L 107.336048 305.806146 
L 108.023763 318.011208 
L 108.711478 320.644672 
L 109.399193 321.949667 
L 110.086909 326.711878 
L 110.774624 320.96909 
L 111.462339 325.942366 
L 112.150054 326.068258 
L 112.83777 331.876861 
L 113.525485 327.488017 
L 114.2132 320.328805 
L 114.900915 324.228814 
L 115.58863 319.604091 
L 116.276346 323.295168 
L 116.964061 316.121774 
L 117.651776 312.101009 
L 118.339491 320.748066 
L 119.027207 315.668052 
L 119.714922 315.312008 
L 120.402637 322.163034 
L 121.090352 322.837324 
L 121.778068 318.103737 
L 122.465783 315.229657 
L 123.153498 313.578413 
L 123.841213 316.494174 
L 125.216644 298.702126 
L 125.904359 296.30152 
L 126.592074 298.135272 
L 127.279789 288.893006 
L 127.967505 282.735609 
L 128.65522 286.490429 
L 129.342935 279.667738 
L 130.03065 282.859921 
L 130.718366 277.894376 
L 131.406081 283.330563 
L 132.093796 280.521875 
L 132.781511 284.919992 
L 133.469226 285.423372 
L 134.156942 288.404757 
L 134.844657 289.582047 
L 135.532372 288.893006 
L 136.220087 293.585539 
L 136.907803 291.048588 
L 137.595518 292.503043 
L 138.283233 288.6667 
L 138.970948 280.464191 
L 139.658664 292.038506 
L 140.346379 284.555995 
L 142.409524 277.709333 
L 143.09724 271.11336 
L 143.784955 274.914231 
L 144.47267 273.733339 
L 145.160385 270.753577 
L 145.848101 271.326976 
L 146.535816 269.234525 
L 147.223531 271.028325 
L 147.911246 267.36903 
L 148.598961 268.560863 
L 149.286677 267.596142 
L 149.974392 268.365498 
L 150.662107 265.027516 
L 151.349822 268.718061 
L 152.037538 264.387426 
L 152.725253 264.387426 
L 153.412968 261.699866 
L 154.100683 262.206229 
L 154.788399 259.886482 
L 155.476114 263.195099 
L 156.163829 261.294475 
L 156.851544 262.078856 
L 157.539259 265.467642 
L 158.226975 262.656207 
L 158.91469 266.094556 
L 159.602405 265.627639 
L 160.29012 265.379116 
L 160.977836 265.556426 
L 161.665551 266.882597 
L 162.353266 268.718061 
L 163.040981 269.05477 
L 163.728697 263.261064 
L 164.416412 267.691274 
L 165.791842 262.769734 
L 166.479557 258.639217 
L 167.167273 258.440861 
L 167.854988 255.506003 
L 168.542703 254.063304 
L 169.230418 254.557504 
L 169.918134 253.181281 
L 170.605849 252.115909 
L 171.293564 251.534525 
L 171.981279 254.920814 
L 172.668995 249.333621 
L 173.35671 255.789843 
L 174.044425 256.444808 
L 174.73214 254.235374 
L 175.419855 256.978969 
L 176.107571 254.420809 
L 176.795286 254.958637 
L 177.483001 252.603054 
L 178.170716 255.919728 
L 178.858432 251.636327 
L 179.546147 250.262371 
L 180.233862 251.119475 
L 180.921577 250.644034 
L 181.609292 247.875274 
L 182.297008 252.428192 
L 182.984723 248.534296 
L 183.672438 252.708453 
L 184.360153 253.014967 
L 185.047869 253.831295 
L 185.735584 255.288442 
L 186.423299 258.075828 
L 187.111014 260.005108 
L 187.79873 257.30396 
L 188.486445 262.286102 
L 189.17416 261.872994 
L 189.861875 257.005918 
L 190.54959 259.083033 
L 191.237306 253.625185 
L 191.925021 253.360474 
L 192.612736 248.026109 
L 193.300451 250.014115 
L 193.988167 247.605608 
L 194.675882 245.828032 
L 195.363597 248.137198 
L 196.051312 246.655777 
L 197.426743 249.565856 
L 198.114458 246.016364 
L 198.802173 249.218158 
L 199.489888 250.067912 
L 200.177604 253.444452 
L 200.865319 252.439818 
L 201.553034 255.097742 
L 202.240749 255.085071 
L 202.928465 253.770532 
L 203.61618 250.229879 
L 204.303895 247.585727 
L 204.99161 246.762037 
L 206.367041 241.539878 
L 207.054756 239.79263 
L 208.430186 240.157691 
L 209.117902 241.507209 
L 209.805617 241.5644 
L 210.493332 241.287608 
L 211.181047 242.892776 
L 211.868763 245.352914 
L 212.556478 247.210384 
L 213.244193 247.805133 
L 213.931908 248.575313 
L 214.619623 245.903229 
L 215.307339 246.054168 
L 215.995054 245.168576 
L 216.682769 240.925042 
L 218.0582 235.786335 
L 218.745915 234.582528 
L 219.43363 231.707046 
L 220.121345 230.730173 
L 220.809061 228.756276 
L 221.496776 228.455264 
L 222.184491 230.397997 
L 222.872206 229.895135 
L 223.559921 231.629881 
L 224.247637 235.402152 
L 224.935352 236.278554 
L 225.623067 235.208508 
L 226.998498 238.812277 
L 227.686213 235.321873 
L 228.373928 231.170909 
L 231.124789 205.676344 
L 234.563365 178.854102 
L 236.626511 165.877942 
L 239.377372 149.987084 
L 240.065087 134.358416 
L 240.752802 127.378056 
L 241.440517 118.115192 
L 242.128233 112.754029 
L 245.566809 103.872502 
L 246.942239 100.838302 
L 247.629954 99.538871 
L 248.31767 98.916793 
L 249.6931 87.827772 
L 250.380815 86.871621 
L 251.068531 82.077827 
L 251.756246 79.562907 
L 252.443961 75.617725 
L 254.507107 67.959261 
L 255.194822 64.71267 
L 258.633398 51.244219 
L 259.321113 48.212004 
L 262.071974 40.467499 
L 263.447405 37.800657 
L 264.13512 36.443992 
L 265.51055 35.050247 
L 266.198266 35.17716 
L 266.885981 34.727949 
L 268.949127 35.822597 
L 269.636842 36.602652 
L 270.324557 37.734305 
L 271.012272 39.280851 
L 271.699987 40.455304 
L 273.075418 44.348144 
L 274.450848 49.928422 
L 275.138564 52.424869 
L 279.264855 71.070036 
L 279.95257 74.479102 
L 280.640285 76.591487 
L 282.703431 85.956857 
L 284.078862 101.18514 
L 286.142007 113.139345 
L 289.580583 128.955419 
L 290.268299 141.506933 
L 290.956014 147.967274 
L 291.643729 151.894763 
L 294.39459 172.447413 
L 295.082305 175.753692 
L 296.457736 183.804795 
L 297.145451 185.924952 
L 297.833166 188.472889 
L 298.520881 190.195426 
L 299.208597 190.996137 
L 299.896312 193.9481 
L 300.584027 195.757141 
L 301.271742 198.108293 
L 301.959458 201.32593 
L 304.022603 213.099197 
L 304.710318 219.269221 
L 305.398034 221.996383 
L 306.085749 227.898651 
L 306.773464 232.44074 
L 307.461179 234.706715 
L 308.148895 233.348583 
L 308.83661 230.897604 
L 309.524325 229.394809 
L 310.21204 226.672942 
L 311.587471 220.484709 
L 312.275186 220.725327 
L 312.962901 219.265248 
L 313.650616 219.512521 
L 314.338332 221.292749 
L 315.026047 221.064524 
L 315.713762 226.196957 
L 316.401477 233.074039 
L 317.089193 234.785403 
L 317.776908 241.263305 
L 318.464623 252.579684 
L 319.840054 266.440281 
L 321.215484 271.758682 
L 321.903199 264.455988 
L 322.590914 261.201671 
L 323.27863 253.050529 
L 323.966345 248.299492 
L 324.65406 245.168579 
L 325.341775 241.466426 
L 326.029491 241.490892 
L 326.717206 236.202844 
L 327.404921 237.920164 
L 328.092636 237.038977 
L 329.468067 244.076171 
L 330.155782 246.281974 
L 330.843497 249.46008 
L 331.531212 253.977628 
L 332.906643 260.696188 
L 333.594358 264.870594 
L 334.282073 261.857216 
L 334.969789 263.343715 
L 335.657504 258.033984 
L 336.345219 256.352272 
L 337.720649 247.486508 
L 338.408365 249.417868 
L 339.09608 245.978606 
L 339.783795 244.388205 
L 340.47151 243.670813 
L 341.159226 246.578735 
L 341.846941 245.631509 
L 342.534656 248.269001 
L 343.222371 251.886611 
L 343.910087 251.523234 
L 344.597802 254.433211 
L 345.285517 253.734131 
L 345.973232 253.504581 
L 346.660947 257.181682 
L 347.348663 257.522528 
L 348.036378 255.544555 
L 348.724093 254.996515 
L 349.411808 254.682298 
L 350.099524 252.991279 
L 350.787239 253.384444 
L 351.474954 251.602355 
L 352.162669 252.614748 
L 352.850384 253.940983 
L 353.5381 256.115588 
L 354.225815 255.919728 
L 354.91353 256.724087 
L 356.288961 263.129275 
L 356.976676 268.423978 
L 357.664391 271.736954 
L 358.352106 278.240995 
L 359.039822 280.579665 
L 359.727537 287.486973 
L 360.415252 293.191453 
L 361.102967 281.969845 
L 361.790682 288.330321 
L 362.478398 293.409768 
L 363.166113 284.687864 
L 363.853828 280.29179 
L 364.541543 279.611631 
L 365.229259 271.092084 
L 365.916974 273.710167 
L 366.604689 269.516242 
L 367.292404 271.049569 
L 367.98012 269.861816 
L 368.667835 272.46222 
L 369.35555 265.860212 
L 370.043265 267.824946 
L 370.73098 271.241352 
L 371.418696 270.795689 
L 372.106411 268.796952 
L 372.794126 270.169979 
L 373.481841 273.802931 
L 374.169557 276.418886 
L 374.857272 286.17682 
L 375.544987 279.893207 
L 376.232702 282.797703 
L 376.920418 294.844752 
L 377.608133 296.688885 
L 378.295848 295.167749 
L 378.983563 297.13056 
L 379.671278 294.434382 
L 380.358994 292.588256 
L 381.046709 296.109643 
L 381.734424 289.893289 
L 382.422139 287.632001 
L 383.109855 277.34254 
L 383.79757 275.180202 
L 384.485285 277.499202 
L 385.173 276.749249 
L 385.860715 273.779716 
L 386.548431 277.238537 
L 387.236146 272.551297 
L 387.923861 277.682987 
L 388.611576 280.957966 
L 389.299292 282.212833 
L 389.987007 281.788851 
L 390.674722 283.616432 
L 391.362437 283.110037 
L 392.050153 292.545619 
L 392.737868 288.930885 
L 393.425583 287.559402 
L 394.113298 303.962404 
L 394.801013 294.029387 
L 395.488729 294.298791 
L 396.176444 283.172886 
L 396.864159 290.405844 
L 397.551874 284.261338 
L 398.23959 291.8713 
L 398.927305 283.330563 
L 399.61502 288.25607 
L 400.302735 289.159145 
L 400.990451 294.844754 
L 401.678166 295.682229 
L 402.365881 314.605561 
L 403.053596 302.87192 
L 403.741311 320.326217 
L 404.429027 315.312008 
L 405.116742 314.869942 
L 405.804457 316.213322 
L 406.492172 321.286281 
L 407.179888 301.933909 
L 407.867603 310.382135 
L 408.555318 314.69272 
L 409.243033 294.525104 
L 409.930748 299.173772 
L 411.306179 289.932415 
L 411.993894 291.663558 
L 412.681609 289.389098 
L 413.369325 290.010816 
L 414.05704 291.37505 
L 414.744755 290.685398 
L 416.120186 313.832013 
L 416.807901 308.46894 
L 417.495616 316.489615 
L 418.183331 320.117436 
L 418.871046 340.829984 
L 419.558762 328.834501 
L 420.246477 328.162246 
L 420.934192 328.162246 
L 421.621907 340.220672 
L 422.309623 344.264157 
L 422.997338 342.923818 
L 423.685053 327.228207 
L 424.372768 321.178418 
L 425.060484 320.539027 
L 425.748199 322.608137 
L 426.435914 314.002246 
L 427.123629 303.351832 
L 427.811344 307.485831 
L 428.49906 306.6018 
L 429.186775 314.087715 
L 429.87449 310.232544 
L 430.562205 320.748071 
L 431.249921 314.265742 
L 431.937636 321.294279 
L 432.625351 320.864955 
L 433.313066 322.848536 
L 434.000782 319.10659 
L 434.688497 326.458487 
L 436.063927 318.708888 
L 436.751642 317.632013 
L 437.439358 320.231951 
L 438.127073 316.591417 
L 439.502503 329.254655 
L 440.190219 325.440823 
L 440.877934 319.915152 
L 441.565649 320.431145 
L 442.253364 328.834501 
L 442.941079 330.539732 
L 443.628795 337.364782 
L 444.31651 319.609143 
L 445.004225 315.052545 
L 445.69194 324.356728 
L 446.379656 322.282653 
L 447.067371 318.708888 
L 447.067371 318.708888 
" style="fill:none;stroke:#004a8c;stroke-linecap:square;stroke-width:3;"/>
   </g>
   <g id="patch_3">
    <path d="M 83.541101 319.190625 
L 83.541101 13.32 
" style="fill:none;stroke:#000000;stroke-linecap:square;stroke-linejoin:miter;stroke-width:0.8;"/>
   </g>
   <g id="patch_4">
    <path d="M 447.48 319.190625 
L 447.48 13.32 
" style="fill:none;stroke:#000000;stroke-linecap:square;stroke-linejoin:miter;stroke-width:0.8;"/>
   </g>
   <g id="patch_5">
    <path d="M 83.541101 319.190625 
L 447.48 319.190625 
" style="fill:none;stroke:#000000;stroke-linecap:square;stroke-linejoin:miter;stroke-width:0.8;"/>
   </g>
   <g id="patch_6">
    <path d="M 83.541101 13.32 
L 447.48 13.32 
" style="fill:none;stroke:#000000;stroke-linecap:square;stroke-linejoin:miter;stroke-width:0.8;"/>
   </g>
  </g>
 </g>
 <defs>
  <clipPath id="pc5a6d0ea6f">
   <rect height="305.870625" width="363.938899" x="83.541101" y="13.32"/>
  </clipPath>
 </defs>
</svg>
